solid OpenSCAD_Model
  facet normal -1 0 0
    outer loop
      vertex 0 100 49
      vertex 0 100 0
      vertex 0 90.8 49
    endloop
  endfacet
  facet normal -1 0 0
    outer loop
      vertex 0 90.8 49
      vertex 0 100 0
      vertex 0 90.8 0
    endloop
  endfacet
  facet normal -0.0157072 -0.999877 0
    outer loop
      vertex 2.8521 90.7552 0
      vertex 2.8521 90.7552 49
      vertex 0 90.8 49
    endloop
  endfacet
  facet normal -0.0157072 -0.999877 0
    outer loop
      vertex 0 90.8 0
      vertex 2.8521 90.7552 0
      vertex 0 90.8 49
    endloop
  endfacet
  facet normal 0 0 -1
    outer loop
      vertex 0 90.8 0
      vertex 0 100 0
      vertex 2.8521 90.7552 0
    endloop
  endfacet
  facet normal 0 0 -1
    outer loop
      vertex 2.8521 90.7552 0
      vertex 0 100 0
      vertex 3.14108 99.9507 0
    endloop
  endfacet
  facet normal 0 0 -1
    outer loop
      vertex 2.8521 90.7552 0
      vertex 3.14108 99.9507 0
      vertex 6.27905 99.8027 0
    endloop
  endfacet
  facet normal 0 0 -1
    outer loop
      vertex 2.8521 90.7552 0
      vertex 6.27905 99.8027 0
      vertex 9.41083 99.5562 0
    endloop
  endfacet
  facet normal 0 0 -1
    outer loop
      vertex 2.8521 90.7552 0
      vertex 9.41083 99.5562 0
      vertex 12.5333 99.2115 0
    endloop
  endfacet
  facet normal 0 0 -1
    outer loop
      vertex 2.8521 90.7552 0
      vertex 12.5333 99.2115 0
      vertex 15.6434 98.7688 0
    endloop
  endfacet
  facet normal 0 0 -1
    outer loop
      vertex 2.8521 90.7552 0
      vertex 15.6434 98.7688 0
      vertex 18.7381 98.2287 0
    endloop
  endfacet
  facet normal 0 0 -1
    outer loop
      vertex 2.8521 90.7552 0
      vertex 18.7381 98.2287 0
      vertex 21.8143 97.5917 0
    endloop
  endfacet
  facet normal 0 0 -1
    outer loop
      vertex 2.8521 90.7552 0
      vertex 21.8143 97.5917 0
      vertex 24.869 96.8583 0
    endloop
  endfacet
  facet normal 0 0 -1
    outer loop
      vertex 2.8521 90.7552 0
      vertex 24.869 96.8583 0
      vertex 27.8991 96.0294 0
    endloop
  endfacet
  facet normal 0 0 -1
    outer loop
      vertex 2.8521 90.7552 0
      vertex 27.8991 96.0294 0
      vertex 30.9017 95.1057 0
    endloop
  endfacet
  facet normal 0 0 -1
    outer loop
      vertex 2.8521 90.7552 0
      vertex 30.9017 95.1057 0
      vertex 33.8738 94.0881 0
    endloop
  endfacet
  facet normal 0 0 -1
    outer loop
      vertex 2.8521 90.7552 0
      vertex 33.8738 94.0881 0
      vertex 36.8125 92.9776 0
    endloop
  endfacet
  facet normal 0 0 -1
    outer loop
      vertex 2.8521 90.7552 0
      vertex 36.8125 92.9776 0
      vertex 39.7148 91.7755 0
    endloop
  endfacet
  facet normal 0 0 -1
    outer loop
      vertex 2.8521 90.7552 0
      vertex 39.7148 91.7755 0
      vertex 42.5779 90.4827 0
    endloop
  endfacet
  facet normal 0 0 -1
    outer loop
      vertex 2.8521 90.7552 0
      vertex 42.5779 90.4827 0
      vertex 45.399 89.1007 0
    endloop
  endfacet
  facet normal 0 0 -1
    outer loop
      vertex 5.70138 90.6208 0
      vertex 45.399 89.1007 0
      vertex 8.54504 90.397 0
    endloop
  endfacet
  facet normal 0 0 -1
    outer loop
      vertex 11.3803 90.084 0
      vertex 48.1754 87.6307 0
      vertex 14.2042 89.6821 0
    endloop
  endfacet
  facet normal 0 0 -1
    outer loop
      vertex 14.2042 89.6821 0
      vertex 50.9041 86.0742 0
      vertex 17.0142 89.1917 0
    endloop
  endfacet
  facet normal 0 0 -1
    outer loop
      vertex 19.8074 88.6132 0
      vertex 53.5827 84.4328 0
      vertex 22.581 87.9474 0
    endloop
  endfacet
  facet normal 0 0 -1
    outer loop
      vertex 25.3324 87.1947 0
      vertex 56.2083 82.7081 0
      vertex 28.0587 86.3559 0
    endloop
  endfacet
  facet normal 0 0 -1
    outer loop
      vertex 28.0587 86.3559 0
      vertex 58.7785 80.9017 0
      vertex 30.7574 85.432 0
    endloop
  endfacet
  facet normal 0 0 -1
    outer loop
      vertex 33.4257 84.4237 0
      vertex 61.2907 79.0155 0
      vertex 36.061 83.3321 0
    endloop
  endfacet
  facet normal 0 0 -1
    outer loop
      vertex 36.061 83.3321 0
      vertex 63.7424 77.0513 0
      vertex 38.6608 82.1583 0
    endloop
  endfacet
  facet normal 0 0 -1
    outer loop
      vertex 38.6608 82.1583 0
      vertex 66.1312 75.0111 0
      vertex 41.2223 80.9034 0
    endloop
  endfacet
  facet normal 0 0 -1
    outer loop
      vertex 43.7432 79.5686 0
      vertex 68.4547 72.8969 0
      vertex 46.221 78.1554 0
    endloop
  endfacet
  facet normal 0 0 -1
    outer loop
      vertex 46.221 78.1554 0
      vertex 70.7107 70.7107 0
      vertex 48.6531 76.665 0
    endloop
  endfacet
  facet normal 0 0 -1
    outer loop
      vertex 48.6531 76.665 0
      vertex 72.8969 68.4547 0
      vertex 51.0372 75.0989 0
    endloop
  endfacet
  facet normal 0 0 -1
    outer loop
      vertex 53.3709 73.4587 0
      vertex 75.0111 66.1312 0
      vertex 55.652 71.7461 0
    endloop
  endfacet
  facet normal 0 0 -1
    outer loop
      vertex 55.652 71.7461 0
      vertex 77.0513 63.7424 0
      vertex 57.8781 69.9626 0
    endloop
  endfacet
  facet normal 0 0 -1
    outer loop
      vertex 57.8781 69.9626 0
      vertex 79.0155 61.2907 0
      vertex 60.0471 68.1101 0
    endloop
  endfacet
  facet normal 0 0 -1
    outer loop
      vertex 60.0471 68.1101 0
      vertex 80.9017 58.7785 0
      vertex 62.1569 66.1904 0
    endloop
  endfacet
  facet normal 0 0 -1
    outer loop
      vertex 64.2053 64.2053 0
      vertex 82.7081 56.2083 0
      vertex 66.1904 62.1569 0
    endloop
  endfacet
  facet normal 0 0 -1
    outer loop
      vertex 66.1904 62.1569 0
      vertex 84.4328 53.5827 0
      vertex 68.1101 60.0471 0
    endloop
  endfacet
  facet normal 0 0 -1
    outer loop
      vertex 68.1101 60.0471 0
      vertex 86.0742 50.9041 0
      vertex 69.9626 57.8781 0
    endloop
  endfacet
  facet normal 0 0 -1
    outer loop
      vertex 69.9626 57.8781 0
      vertex 87.6307 48.1754 0
      vertex 71.7461 55.652 0
    endloop
  endfacet
  facet normal 0 0 -1
    outer loop
      vertex 73.4587 53.3709 0
      vertex 89.1007 45.399 0
      vertex 75.0989 51.0372 0
    endloop
  endfacet
  facet normal 0 0 -1
    outer loop
      vertex 75.0989 51.0372 0
      vertex 90.4827 42.5779 0
      vertex 76.665 48.6531 0
    endloop
  endfacet
  facet normal 0 0 -1
    outer loop
      vertex 76.665 48.6531 0
      vertex 91.7755 39.7148 0
      vertex 78.1554 46.221 0
    endloop
  endfacet
  facet normal 0 0 -1
    outer loop
      vertex 78.1554 46.221 0
      vertex 92.9776 36.8125 0
      vertex 79.5686 43.7432 0
    endloop
  endfacet
  facet normal 0 0 -1
    outer loop
      vertex 79.5686 43.7432 0
      vertex 94.0881 33.8738 0
      vertex 80.9034 41.2223 0
    endloop
  endfacet
  facet normal 0 0 -1
    outer loop
      vertex 80.9034 41.2223 0
      vertex 95.1057 30.9017 0
      vertex 82.1583 38.6608 0
    endloop
  endfacet
  facet normal 0 0 -1
    outer loop
      vertex 82.1583 38.6608 0
      vertex 96.0294 27.8991 0
      vertex 83.3321 36.061 0
    endloop
  endfacet
  facet normal 0 0 -1
    outer loop
      vertex 84.4237 33.4257 0
      vertex 96.8583 24.869 0
      vertex 85.432 30.7574 0
    endloop
  endfacet
  facet normal 0 0 -1
    outer loop
      vertex 85.432 30.7574 0
      vertex 97.5917 21.8143 0
      vertex 86.3559 28.0587 0
    endloop
  endfacet
  facet normal 0 0 -1
    outer loop
      vertex 86.3559 28.0587 0
      vertex 98.2287 18.7381 0
      vertex 87.1947 25.3324 0
    endloop
  endfacet
  facet normal 0 0 -1
    outer loop
      vertex 87.1947 25.3324 0
      vertex 98.7688 15.6434 0
      vertex 87.9474 22.581 0
    endloop
  endfacet
  facet normal 0 0 -1
    outer loop
      vertex 87.9474 22.581 0
      vertex 99.2115 12.5333 0
      vertex 88.6132 19.8074 0
    endloop
  endfacet
  facet normal 0 0 -1
    outer loop
      vertex 88.6132 19.8074 0
      vertex 99.5562 9.41083 0
      vertex 89.1917 17.0142 0
    endloop
  endfacet
  facet normal 0 0 -1
    outer loop
      vertex 89.1917 17.0142 0
      vertex 99.8027 6.27905 0
      vertex 89.6821 14.2042 0
    endloop
  endfacet
  facet normal 0 0 -1
    outer loop
      vertex 89.6821 14.2042 0
      vertex 99.9507 3.14108 0
      vertex 90.084 11.3803 0
    endloop
  endfacet
  facet normal 0 0 -1
    outer loop
      vertex 100 0 0
      vertex 90.8 0 0
      vertex 90.7552 2.8521 0
    endloop
  endfacet
  facet normal 0 0 -1
    outer loop
      vertex 100 0 0
      vertex 90.7552 2.8521 0
      vertex 90.6208 5.70138 0
    endloop
  endfacet
  facet normal 0 0 -1
    outer loop
      vertex 100 0 0
      vertex 90.6208 5.70138 0
      vertex 90.397 8.54504 0
    endloop
  endfacet
  facet normal 0 0 -1
    outer loop
      vertex 99.9507 3.14108 0
      vertex 100 0 0
      vertex 90.084 11.3803 0
    endloop
  endfacet
  facet normal 0 0 -1
    outer loop
      vertex 99.8027 6.27905 0
      vertex 99.9507 3.14108 0
      vertex 89.6821 14.2042 0
    endloop
  endfacet
  facet normal 0 0 -1
    outer loop
      vertex 99.5562 9.41083 0
      vertex 99.8027 6.27905 0
      vertex 89.1917 17.0142 0
    endloop
  endfacet
  facet normal 0 0 -1
    outer loop
      vertex 99.2115 12.5333 0
      vertex 99.5562 9.41083 0
      vertex 88.6132 19.8074 0
    endloop
  endfacet
  facet normal 0 0 -1
    outer loop
      vertex 98.7688 15.6434 0
      vertex 99.2115 12.5333 0
      vertex 87.9474 22.581 0
    endloop
  endfacet
  facet normal 0 0 -1
    outer loop
      vertex 98.2287 18.7381 0
      vertex 98.7688 15.6434 0
      vertex 87.1947 25.3324 0
    endloop
  endfacet
  facet normal 0 0 -1
    outer loop
      vertex 97.5917 21.8143 0
      vertex 98.2287 18.7381 0
      vertex 86.3559 28.0587 0
    endloop
  endfacet
  facet normal 0 0 -1
    outer loop
      vertex 96.8583 24.869 0
      vertex 97.5917 21.8143 0
      vertex 85.432 30.7574 0
    endloop
  endfacet
  facet normal 0 0 -1
    outer loop
      vertex 96.0294 27.8991 0
      vertex 96.8583 24.869 0
      vertex 84.4237 33.4257 0
    endloop
  endfacet
  facet normal 0 0 -1
    outer loop
      vertex 96.0294 27.8991 0
      vertex 84.4237 33.4257 0
      vertex 83.3321 36.061 0
    endloop
  endfacet
  facet normal 0 0 -1
    outer loop
      vertex 95.1057 30.9017 0
      vertex 96.0294 27.8991 0
      vertex 82.1583 38.6608 0
    endloop
  endfacet
  facet normal 0 0 -1
    outer loop
      vertex 94.0881 33.8738 0
      vertex 95.1057 30.9017 0
      vertex 80.9034 41.2223 0
    endloop
  endfacet
  facet normal 0 0 -1
    outer loop
      vertex 92.9776 36.8125 0
      vertex 94.0881 33.8738 0
      vertex 79.5686 43.7432 0
    endloop
  endfacet
  facet normal 0 0 -1
    outer loop
      vertex 91.7755 39.7148 0
      vertex 92.9776 36.8125 0
      vertex 78.1554 46.221 0
    endloop
  endfacet
  facet normal 0 0 -1
    outer loop
      vertex 90.4827 42.5779 0
      vertex 91.7755 39.7148 0
      vertex 76.665 48.6531 0
    endloop
  endfacet
  facet normal 0 0 -1
    outer loop
      vertex 89.1007 45.399 0
      vertex 90.4827 42.5779 0
      vertex 75.0989 51.0372 0
    endloop
  endfacet
  facet normal 0 0 -1
    outer loop
      vertex 87.6307 48.1754 0
      vertex 89.1007 45.399 0
      vertex 73.4587 53.3709 0
    endloop
  endfacet
  facet normal 0 0 -1
    outer loop
      vertex 87.6307 48.1754 0
      vertex 73.4587 53.3709 0
      vertex 71.7461 55.652 0
    endloop
  endfacet
  facet normal 0 0 -1
    outer loop
      vertex 86.0742 50.9041 0
      vertex 87.6307 48.1754 0
      vertex 69.9626 57.8781 0
    endloop
  endfacet
  facet normal 0 0 -1
    outer loop
      vertex 84.4328 53.5827 0
      vertex 86.0742 50.9041 0
      vertex 68.1101 60.0471 0
    endloop
  endfacet
  facet normal 0 0 -1
    outer loop
      vertex 82.7081 56.2083 0
      vertex 84.4328 53.5827 0
      vertex 66.1904 62.1569 0
    endloop
  endfacet
  facet normal 0 0 -1
    outer loop
      vertex 80.9017 58.7785 0
      vertex 82.7081 56.2083 0
      vertex 64.2053 64.2053 0
    endloop
  endfacet
  facet normal 0 0 -1
    outer loop
      vertex 80.9017 58.7785 0
      vertex 64.2053 64.2053 0
      vertex 62.1569 66.1904 0
    endloop
  endfacet
  facet normal 0 0 -1
    outer loop
      vertex 79.0155 61.2907 0
      vertex 80.9017 58.7785 0
      vertex 60.0471 68.1101 0
    endloop
  endfacet
  facet normal 0 0 -1
    outer loop
      vertex 77.0513 63.7424 0
      vertex 79.0155 61.2907 0
      vertex 57.8781 69.9626 0
    endloop
  endfacet
  facet normal 0 0 -1
    outer loop
      vertex 75.0111 66.1312 0
      vertex 77.0513 63.7424 0
      vertex 55.652 71.7461 0
    endloop
  endfacet
  facet normal 0 0 -1
    outer loop
      vertex 72.8969 68.4547 0
      vertex 75.0111 66.1312 0
      vertex 53.3709 73.4587 0
    endloop
  endfacet
  facet normal 0 0 -1
    outer loop
      vertex 72.8969 68.4547 0
      vertex 53.3709 73.4587 0
      vertex 51.0372 75.0989 0
    endloop
  endfacet
  facet normal 0 0 -1
    outer loop
      vertex 70.7107 70.7107 0
      vertex 72.8969 68.4547 0
      vertex 48.6531 76.665 0
    endloop
  endfacet
  facet normal 0 0 -1
    outer loop
      vertex 68.4547 72.8969 0
      vertex 70.7107 70.7107 0
      vertex 46.221 78.1554 0
    endloop
  endfacet
  facet normal 0 0 -1
    outer loop
      vertex 66.1312 75.0111 0
      vertex 68.4547 72.8969 0
      vertex 43.7432 79.5686 0
    endloop
  endfacet
  facet normal 0 0 -1
    outer loop
      vertex 66.1312 75.0111 0
      vertex 43.7432 79.5686 0
      vertex 41.2223 80.9034 0
    endloop
  endfacet
  facet normal 0 0 -1
    outer loop
      vertex 63.7424 77.0513 0
      vertex 66.1312 75.0111 0
      vertex 38.6608 82.1583 0
    endloop
  endfacet
  facet normal 0 0 -1
    outer loop
      vertex 61.2907 79.0155 0
      vertex 63.7424 77.0513 0
      vertex 36.061 83.3321 0
    endloop
  endfacet
  facet normal 0 0 -1
    outer loop
      vertex 58.7785 80.9017 0
      vertex 61.2907 79.0155 0
      vertex 33.4257 84.4237 0
    endloop
  endfacet
  facet normal 0 0 -1
    outer loop
      vertex 58.7785 80.9017 0
      vertex 33.4257 84.4237 0
      vertex 30.7574 85.432 0
    endloop
  endfacet
  facet normal 0 0 -1
    outer loop
      vertex 56.2083 82.7081 0
      vertex 58.7785 80.9017 0
      vertex 28.0587 86.3559 0
    endloop
  endfacet
  facet normal 0 0 -1
    outer loop
      vertex 53.5827 84.4328 0
      vertex 56.2083 82.7081 0
      vertex 25.3324 87.1947 0
    endloop
  endfacet
  facet normal 0 0 -1
    outer loop
      vertex 53.5827 84.4328 0
      vertex 25.3324 87.1947 0
      vertex 22.581 87.9474 0
    endloop
  endfacet
  facet normal 0 0 -1
    outer loop
      vertex 50.9041 86.0742 0
      vertex 53.5827 84.4328 0
      vertex 19.8074 88.6132 0
    endloop
  endfacet
  facet normal 0 0 -1
    outer loop
      vertex 50.9041 86.0742 0
      vertex 19.8074 88.6132 0
      vertex 17.0142 89.1917 0
    endloop
  endfacet
  facet normal 0 0 -1
    outer loop
      vertex 48.1754 87.6307 0
      vertex 50.9041 86.0742 0
      vertex 14.2042 89.6821 0
    endloop
  endfacet
  facet normal 0 0 -1
    outer loop
      vertex 45.399 89.1007 0
      vertex 48.1754 87.6307 0
      vertex 11.3803 90.084 0
    endloop
  endfacet
  facet normal 0 0 -1
    outer loop
      vertex 45.399 89.1007 0
      vertex 11.3803 90.084 0
      vertex 8.54504 90.397 0
    endloop
  endfacet
  facet normal 0 0 -1
    outer loop
      vertex 2.8521 90.7552 0
      vertex 45.399 89.1007 0
      vertex 5.70138 90.6208 0
    endloop
  endfacet
  facet normal 0 0 -1
    outer loop
      vertex 90.084 11.3803 0
      vertex 100 0 0
      vertex 90.397 8.54504 0
    endloop
  endfacet
  facet normal 0 0 1
    outer loop
      vertex 8.54504 90.397 49
      vertex 11.3803 90.084 49
      vertex 0 100 49
    endloop
  endfacet
  facet normal 0 0 1
    outer loop
      vertex 0 100 49
      vertex 0 90.8 49
      vertex 2.8521 90.7552 49
    endloop
  endfacet
  facet normal 0 0 1
    outer loop
      vertex 11.3803 90.084 49
      vertex 14.2042 89.6821 49
      vertex 0 100 49
    endloop
  endfacet
  facet normal 0 0 1
    outer loop
      vertex 5.70138 90.6208 49
      vertex 0 100 49
      vertex 2.8521 90.7552 49
    endloop
  endfacet
  facet normal 0 0 1
    outer loop
      vertex 5.70138 90.6208 49
      vertex 8.54504 90.397 49
      vertex 0 100 49
    endloop
  endfacet
  facet normal 0 0 1
    outer loop
      vertex 14.2042 89.6821 49
      vertex 17.0142 89.1917 49
      vertex 0 100 49
    endloop
  endfacet
  facet normal 0 0 1
    outer loop
      vertex 17.0142 89.1917 49
      vertex 19.8074 88.6132 49
      vertex 0 100 49
    endloop
  endfacet
  facet normal 0 0 1
    outer loop
      vertex 19.8074 88.6132 49
      vertex 22.581 87.9474 49
      vertex 0 100 49
    endloop
  endfacet
  facet normal 0 0 1
    outer loop
      vertex 22.581 87.9474 49
      vertex 25.3324 87.1947 49
      vertex 0 100 49
    endloop
  endfacet
  facet normal 0 0 1
    outer loop
      vertex 25.3324 87.1947 49
      vertex 28.0587 86.3559 49
      vertex 0 100 49
    endloop
  endfacet
  facet normal 0 0 1
    outer loop
      vertex 28.0587 86.3559 49
      vertex 30.7574 85.432 49
      vertex 0 100 49
    endloop
  endfacet
  facet normal 0 0 1
    outer loop
      vertex 30.7574 85.432 49
      vertex 33.4257 84.4237 49
      vertex 0 100 49
    endloop
  endfacet
  facet normal 0 0 1
    outer loop
      vertex 33.4257 84.4237 49
      vertex 36.061 83.3321 49
      vertex 0 100 49
    endloop
  endfacet
  facet normal 0 0 1
    outer loop
      vertex 36.061 83.3321 49
      vertex 38.6608 82.1583 49
      vertex 0 100 49
    endloop
  endfacet
  facet normal 0 0 1
    outer loop
      vertex 38.6608 82.1583 49
      vertex 75.0111 66.1312 49
      vertex 0 100 49
    endloop
  endfacet
  facet normal 0 0 1
    outer loop
      vertex 41.2223 80.9034 49
      vertex 77.0513 63.7424 49
      vertex 38.6608 82.1583 49
    endloop
  endfacet
  facet normal 0 0 1
    outer loop
      vertex 43.7432 79.5686 49
      vertex 79.0155 61.2907 49
      vertex 41.2223 80.9034 49
    endloop
  endfacet
  facet normal 0 0 1
    outer loop
      vertex 46.221 78.1554 49
      vertex 80.9017 58.7785 49
      vertex 43.7432 79.5686 49
    endloop
  endfacet
  facet normal 0 0 1
    outer loop
      vertex 48.6531 76.665 49
      vertex 82.7081 56.2083 49
      vertex 46.221 78.1554 49
    endloop
  endfacet
  facet normal 0 0 1
    outer loop
      vertex 51.0372 75.0989 49
      vertex 84.4328 53.5827 49
      vertex 48.6531 76.665 49
    endloop
  endfacet
  facet normal 0 0 1
    outer loop
      vertex 53.3709 73.4587 49
      vertex 86.0742 50.9041 49
      vertex 51.0372 75.0989 49
    endloop
  endfacet
  facet normal 0 0 1
    outer loop
      vertex 55.652 71.7461 49
      vertex 87.6307 48.1754 49
      vertex 53.3709 73.4587 49
    endloop
  endfacet
  facet normal 0 0 1
    outer loop
      vertex 57.8781 69.9626 49
      vertex 89.1007 45.399 49
      vertex 55.652 71.7461 49
    endloop
  endfacet
  facet normal 0 0 1
    outer loop
      vertex 60.0471 68.1101 49
      vertex 90.4827 42.5779 49
      vertex 57.8781 69.9626 49
    endloop
  endfacet
  facet normal 0 0 1
    outer loop
      vertex 62.1569 66.1904 49
      vertex 91.7755 39.7148 49
      vertex 60.0471 68.1101 49
    endloop
  endfacet
  facet normal 0 0 1
    outer loop
      vertex 64.2053 64.2053 49
      vertex 92.9776 36.8125 49
      vertex 62.1569 66.1904 49
    endloop
  endfacet
  facet normal 0 0 1
    outer loop
      vertex 66.1904 62.1569 49
      vertex 94.0881 33.8738 49
      vertex 64.2053 64.2053 49
    endloop
  endfacet
  facet normal 0 0 1
    outer loop
      vertex 68.1101 60.0471 49
      vertex 95.1057 30.9017 49
      vertex 66.1904 62.1569 49
    endloop
  endfacet
  facet normal 0 0 1
    outer loop
      vertex 69.9626 57.8781 49
      vertex 96.0294 27.8991 49
      vertex 68.1101 60.0471 49
    endloop
  endfacet
  facet normal 0 0 1
    outer loop
      vertex 71.7461 55.652 49
      vertex 96.8583 24.869 49
      vertex 69.9626 57.8781 49
    endloop
  endfacet
  facet normal 0 0 1
    outer loop
      vertex 73.4587 53.3709 49
      vertex 97.5917 21.8143 49
      vertex 71.7461 55.652 49
    endloop
  endfacet
  facet normal 0 0 1
    outer loop
      vertex 75.0989 51.0372 49
      vertex 98.2287 18.7381 49
      vertex 73.4587 53.3709 49
    endloop
  endfacet
  facet normal 0 0 1
    outer loop
      vertex 76.665 48.6531 49
      vertex 98.7688 15.6434 49
      vertex 75.0989 51.0372 49
    endloop
  endfacet
  facet normal 0 0 1
    outer loop
      vertex 78.1554 46.221 49
      vertex 99.2115 12.5333 49
      vertex 76.665 48.6531 49
    endloop
  endfacet
  facet normal 0 0 1
    outer loop
      vertex 79.5686 43.7432 49
      vertex 99.5562 9.41083 49
      vertex 78.1554 46.221 49
    endloop
  endfacet
  facet normal 0 0 1
    outer loop
      vertex 80.9034 41.2223 49
      vertex 99.8027 6.27905 49
      vertex 79.5686 43.7432 49
    endloop
  endfacet
  facet normal 0 0 1
    outer loop
      vertex 82.1583 38.6608 49
      vertex 99.9507 3.14108 49
      vertex 80.9034 41.2223 49
    endloop
  endfacet
  facet normal 0 0 1
    outer loop
      vertex 83.3321 36.061 49
      vertex 100 0 49
      vertex 82.1583 38.6608 49
    endloop
  endfacet
  facet normal 0 0 1
    outer loop
      vertex 84.4237 33.4257 49
      vertex 100 0 49
      vertex 83.3321 36.061 49
    endloop
  endfacet
  facet normal 0 0 1
    outer loop
      vertex 85.432 30.7574 49
      vertex 100 0 49
      vertex 84.4237 33.4257 49
    endloop
  endfacet
  facet normal 0 0 1
    outer loop
      vertex 86.3559 28.0587 49
      vertex 100 0 49
      vertex 85.432 30.7574 49
    endloop
  endfacet
  facet normal 0 0 1
    outer loop
      vertex 87.1947 25.3324 49
      vertex 100 0 49
      vertex 86.3559 28.0587 49
    endloop
  endfacet
  facet normal 0 0 1
    outer loop
      vertex 87.9474 22.581 49
      vertex 100 0 49
      vertex 87.1947 25.3324 49
    endloop
  endfacet
  facet normal 0 0 1
    outer loop
      vertex 88.6132 19.8074 49
      vertex 100 0 49
      vertex 87.9474 22.581 49
    endloop
  endfacet
  facet normal 0 0 1
    outer loop
      vertex 89.1917 17.0142 49
      vertex 100 0 49
      vertex 88.6132 19.8074 49
    endloop
  endfacet
  facet normal 0 0 1
    outer loop
      vertex 89.6821 14.2042 49
      vertex 100 0 49
      vertex 89.1917 17.0142 49
    endloop
  endfacet
  facet normal 0 0 1
    outer loop
      vertex 90.084 11.3803 49
      vertex 100 0 49
      vertex 89.6821 14.2042 49
    endloop
  endfacet
  facet normal 0 0 1
    outer loop
      vertex 90.397 8.54504 49
      vertex 100 0 49
      vertex 90.084 11.3803 49
    endloop
  endfacet
  facet normal 0 0 1
    outer loop
      vertex 90.6208 5.70138 49
      vertex 100 0 49
      vertex 90.397 8.54504 49
    endloop
  endfacet
  facet normal 0 0 1
    outer loop
      vertex 90.7552 2.8521 49
      vertex 100 0 49
      vertex 90.6208 5.70138 49
    endloop
  endfacet
  facet normal 0 0 1
    outer loop
      vertex 90.8 0 49
      vertex 100 0 49
      vertex 90.7552 2.8521 49
    endloop
  endfacet
  facet normal 0 0 1
    outer loop
      vertex 100 0 49
      vertex 99.9507 3.14108 49
      vertex 82.1583 38.6608 49
    endloop
  endfacet
  facet normal 0 0 1
    outer loop
      vertex 99.9507 3.14108 49
      vertex 99.8027 6.27905 49
      vertex 80.9034 41.2223 49
    endloop
  endfacet
  facet normal 0 0 1
    outer loop
      vertex 99.8027 6.27905 49
      vertex 99.5562 9.41083 49
      vertex 79.5686 43.7432 49
    endloop
  endfacet
  facet normal 0 0 1
    outer loop
      vertex 99.5562 9.41083 49
      vertex 99.2115 12.5333 49
      vertex 78.1554 46.221 49
    endloop
  endfacet
  facet normal 0 0 1
    outer loop
      vertex 99.2115 12.5333 49
      vertex 98.7688 15.6434 49
      vertex 76.665 48.6531 49
    endloop
  endfacet
  facet normal 0 0 1
    outer loop
      vertex 98.7688 15.6434 49
      vertex 98.2287 18.7381 49
      vertex 75.0989 51.0372 49
    endloop
  endfacet
  facet normal 0 0 1
    outer loop
      vertex 98.2287 18.7381 49
      vertex 97.5917 21.8143 49
      vertex 73.4587 53.3709 49
    endloop
  endfacet
  facet normal 0 0 1
    outer loop
      vertex 97.5917 21.8143 49
      vertex 96.8583 24.869 49
      vertex 71.7461 55.652 49
    endloop
  endfacet
  facet normal 0 0 1
    outer loop
      vertex 96.8583 24.869 49
      vertex 96.0294 27.8991 49
      vertex 69.9626 57.8781 49
    endloop
  endfacet
  facet normal 0 0 1
    outer loop
      vertex 96.0294 27.8991 49
      vertex 95.1057 30.9017 49
      vertex 68.1101 60.0471 49
    endloop
  endfacet
  facet normal 0 0 1
    outer loop
      vertex 95.1057 30.9017 49
      vertex 94.0881 33.8738 49
      vertex 66.1904 62.1569 49
    endloop
  endfacet
  facet normal 0 0 1
    outer loop
      vertex 94.0881 33.8738 49
      vertex 92.9776 36.8125 49
      vertex 64.2053 64.2053 49
    endloop
  endfacet
  facet normal 0 0 1
    outer loop
      vertex 92.9776 36.8125 49
      vertex 91.7755 39.7148 49
      vertex 62.1569 66.1904 49
    endloop
  endfacet
  facet normal 0 0 1
    outer loop
      vertex 91.7755 39.7148 49
      vertex 90.4827 42.5779 49
      vertex 60.0471 68.1101 49
    endloop
  endfacet
  facet normal 0 0 1
    outer loop
      vertex 90.4827 42.5779 49
      vertex 89.1007 45.399 49
      vertex 57.8781 69.9626 49
    endloop
  endfacet
  facet normal 0 0 1
    outer loop
      vertex 89.1007 45.399 49
      vertex 87.6307 48.1754 49
      vertex 55.652 71.7461 49
    endloop
  endfacet
  facet normal 0 0 1
    outer loop
      vertex 87.6307 48.1754 49
      vertex 86.0742 50.9041 49
      vertex 53.3709 73.4587 49
    endloop
  endfacet
  facet normal 0 0 1
    outer loop
      vertex 86.0742 50.9041 49
      vertex 84.4328 53.5827 49
      vertex 51.0372 75.0989 49
    endloop
  endfacet
  facet normal 0 0 1
    outer loop
      vertex 84.4328 53.5827 49
      vertex 82.7081 56.2083 49
      vertex 48.6531 76.665 49
    endloop
  endfacet
  facet normal 0 0 1
    outer loop
      vertex 82.7081 56.2083 49
      vertex 80.9017 58.7785 49
      vertex 46.221 78.1554 49
    endloop
  endfacet
  facet normal 0 0 1
    outer loop
      vertex 80.9017 58.7785 49
      vertex 79.0155 61.2907 49
      vertex 43.7432 79.5686 49
    endloop
  endfacet
  facet normal 0 0 1
    outer loop
      vertex 79.0155 61.2907 49
      vertex 77.0513 63.7424 49
      vertex 41.2223 80.9034 49
    endloop
  endfacet
  facet normal 0 0 1
    outer loop
      vertex 77.0513 63.7424 49
      vertex 75.0111 66.1312 49
      vertex 38.6608 82.1583 49
    endloop
  endfacet
  facet normal 0 0 1
    outer loop
      vertex 75.0111 66.1312 49
      vertex 72.8969 68.4547 49
      vertex 0 100 49
    endloop
  endfacet
  facet normal 0 0 1
    outer loop
      vertex 72.8969 68.4547 49
      vertex 70.7107 70.7107 49
      vertex 0 100 49
    endloop
  endfacet
  facet normal 0 0 1
    outer loop
      vertex 70.7107 70.7107 49
      vertex 68.4547 72.8969 49
      vertex 0 100 49
    endloop
  endfacet
  facet normal 0 0 1
    outer loop
      vertex 68.4547 72.8969 49
      vertex 66.1312 75.0111 49
      vertex 0 100 49
    endloop
  endfacet
  facet normal 0 0 1
    outer loop
      vertex 66.1312 75.0111 49
      vertex 63.7424 77.0513 49
      vertex 0 100 49
    endloop
  endfacet
  facet normal 0 0 1
    outer loop
      vertex 63.7424 77.0513 49
      vertex 61.2907 79.0155 49
      vertex 0 100 49
    endloop
  endfacet
  facet normal 0 0 1
    outer loop
      vertex 61.2907 79.0155 49
      vertex 58.7785 80.9017 49
      vertex 0 100 49
    endloop
  endfacet
  facet normal 0 0 1
    outer loop
      vertex 58.7785 80.9017 49
      vertex 56.2083 82.7081 49
      vertex 0 100 49
    endloop
  endfacet
  facet normal 0 0 1
    outer loop
      vertex 56.2083 82.7081 49
      vertex 53.5827 84.4328 49
      vertex 0 100 49
    endloop
  endfacet
  facet normal 0 0 1
    outer loop
      vertex 53.5827 84.4328 49
      vertex 50.9041 86.0742 49
      vertex 0 100 49
    endloop
  endfacet
  facet normal 0 0 1
    outer loop
      vertex 50.9041 86.0742 49
      vertex 48.1754 87.6307 49
      vertex 0 100 49
    endloop
  endfacet
  facet normal 0 0 1
    outer loop
      vertex 48.1754 87.6307 49
      vertex 45.399 89.1007 49
      vertex 0 100 49
    endloop
  endfacet
  facet normal 0 0 1
    outer loop
      vertex 45.399 89.1007 49
      vertex 42.5779 90.4827 49
      vertex 0 100 49
    endloop
  endfacet
  facet normal 0 0 1
    outer loop
      vertex 42.5779 90.4827 49
      vertex 39.7148 91.7755 49
      vertex 0 100 49
    endloop
  endfacet
  facet normal 0 0 1
    outer loop
      vertex 39.7148 91.7755 49
      vertex 36.8125 92.9776 49
      vertex 0 100 49
    endloop
  endfacet
  facet normal 0 0 1
    outer loop
      vertex 36.8125 92.9776 49
      vertex 33.8738 94.0881 49
      vertex 0 100 49
    endloop
  endfacet
  facet normal 0 0 1
    outer loop
      vertex 33.8738 94.0881 49
      vertex 30.9017 95.1057 49
      vertex 0 100 49
    endloop
  endfacet
  facet normal 0 0 1
    outer loop
      vertex 30.9017 95.1057 49
      vertex 27.8991 96.0294 49
      vertex 0 100 49
    endloop
  endfacet
  facet normal 0 0 1
    outer loop
      vertex 27.8991 96.0294 49
      vertex 24.869 96.8583 49
      vertex 0 100 49
    endloop
  endfacet
  facet normal 0 0 1
    outer loop
      vertex 24.869 96.8583 49
      vertex 21.8143 97.5917 49
      vertex 0 100 49
    endloop
  endfacet
  facet normal 0 0 1
    outer loop
      vertex 21.8143 97.5917 49
      vertex 18.7381 98.2287 49
      vertex 0 100 49
    endloop
  endfacet
  facet normal 0 0 1
    outer loop
      vertex 18.7381 98.2287 49
      vertex 15.6434 98.7688 49
      vertex 0 100 49
    endloop
  endfacet
  facet normal 0 0 1
    outer loop
      vertex 15.6434 98.7688 49
      vertex 12.5333 99.2115 49
      vertex 0 100 49
    endloop
  endfacet
  facet normal 0 0 1
    outer loop
      vertex 12.5333 99.2115 49
      vertex 9.41083 99.5562 49
      vertex 0 100 49
    endloop
  endfacet
  facet normal 0 0 1
    outer loop
      vertex 9.41083 99.5562 49
      vertex 6.27905 99.8027 49
      vertex 0 100 49
    endloop
  endfacet
  facet normal 0 0 1
    outer loop
      vertex 6.27905 99.8027 49
      vertex 3.14108 99.9507 49
      vertex 0 100 49
    endloop
  endfacet
  facet normal 0.0157073 0.999877 0
    outer loop
      vertex 0 100 0
      vertex 0 100 49
      vertex 3.14108 99.9507 0
    endloop
  endfacet
  facet normal 0.0157073 0.999877 0
    outer loop
      vertex 3.14108 99.9507 0
      vertex 0 100 49
      vertex 3.14108 99.9507 49
    endloop
  endfacet
  facet normal -0.0471065 -0.99889 0
    outer loop
      vertex 5.70138 90.6208 0
      vertex 5.70138 90.6208 49
      vertex 2.8521 90.7552 49
    endloop
  endfacet
  facet normal -0.0471065 -0.99889 0
    outer loop
      vertex 2.8521 90.7552 0
      vertex 5.70138 90.6208 0
      vertex 2.8521 90.7552 49
    endloop
  endfacet
  facet normal -0.0784592 -0.996917 0
    outer loop
      vertex 8.54504 90.397 0
      vertex 8.54504 90.397 49
      vertex 5.70138 90.6208 49
    endloop
  endfacet
  facet normal -0.0784592 -0.996917 0
    outer loop
      vertex 5.70138 90.6208 0
      vertex 8.54504 90.397 0
      vertex 5.70138 90.6208 49
    endloop
  endfacet
  facet normal -0.109734 -0.993961 0
    outer loop
      vertex 11.3803 90.084 0
      vertex 11.3803 90.084 49
      vertex 8.54504 90.397 49
    endloop
  endfacet
  facet normal -0.109734 -0.993961 0
    outer loop
      vertex 8.54504 90.397 0
      vertex 11.3803 90.084 0
      vertex 8.54504 90.397 49
    endloop
  endfacet
  facet normal -0.140901 -0.990024 0
    outer loop
      vertex 14.2042 89.6821 0
      vertex 14.2042 89.6821 49
      vertex 11.3803 90.084 49
    endloop
  endfacet
  facet normal -0.140901 -0.990024 0
    outer loop
      vertex 11.3803 90.084 0
      vertex 14.2042 89.6821 0
      vertex 11.3803 90.084 49
    endloop
  endfacet
  facet normal -0.171929 -0.985109 0
    outer loop
      vertex 17.0142 89.1917 0
      vertex 17.0142 89.1917 49
      vertex 14.2042 89.6821 49
    endloop
  endfacet
  facet normal -0.171929 -0.985109 0
    outer loop
      vertex 14.2042 89.6821 0
      vertex 17.0142 89.1917 0
      vertex 14.2042 89.6821 49
    endloop
  endfacet
  facet normal -0.202787 -0.979223 0
    outer loop
      vertex 19.8074 88.6132 0
      vertex 19.8074 88.6132 49
      vertex 17.0142 89.1917 49
    endloop
  endfacet
  facet normal -0.202787 -0.979223 0
    outer loop
      vertex 17.0142 89.1917 0
      vertex 19.8074 88.6132 0
      vertex 17.0142 89.1917 49
    endloop
  endfacet
  facet normal -0.233445 -0.97237 0
    outer loop
      vertex 22.581 87.9474 0
      vertex 22.581 87.9474 49
      vertex 19.8074 88.6132 49
    endloop
  endfacet
  facet normal -0.233445 -0.97237 0
    outer loop
      vertex 19.8074 88.6132 0
      vertex 22.581 87.9474 0
      vertex 19.8074 88.6132 49
    endloop
  endfacet
  facet normal -0.263873 -0.964557 0
    outer loop
      vertex 25.3324 87.1947 0
      vertex 25.3324 87.1947 49
      vertex 22.581 87.9474 49
    endloop
  endfacet
  facet normal -0.263873 -0.964557 0
    outer loop
      vertex 22.581 87.9474 0
      vertex 25.3324 87.1947 0
      vertex 22.581 87.9474 49
    endloop
  endfacet
  facet normal -0.29404 -0.955793 0
    outer loop
      vertex 28.0587 86.3559 0
      vertex 28.0587 86.3559 49
      vertex 25.3324 87.1947 49
    endloop
  endfacet
  facet normal -0.29404 -0.955793 0
    outer loop
      vertex 25.3324 87.1947 0
      vertex 28.0587 86.3559 0
      vertex 25.3324 87.1947 49
    endloop
  endfacet
  facet normal -0.323917 -0.946085 0
    outer loop
      vertex 30.7574 85.432 0
      vertex 30.7574 85.432 49
      vertex 28.0587 86.3559 49
    endloop
  endfacet
  facet normal -0.323917 -0.946085 0
    outer loop
      vertex 28.0587 86.3559 0
      vertex 30.7574 85.432 0
      vertex 28.0587 86.3559 49
    endloop
  endfacet
  facet normal -0.353475 -0.935444 0
    outer loop
      vertex 33.4257 84.4237 0
      vertex 33.4257 84.4237 49
      vertex 30.7574 85.432 49
    endloop
  endfacet
  facet normal -0.353475 -0.935444 0
    outer loop
      vertex 30.7574 85.432 0
      vertex 33.4257 84.4237 0
      vertex 30.7574 85.432 49
    endloop
  endfacet
  facet normal -0.382683 -0.92388 0
    outer loop
      vertex 36.061 83.3321 0
      vertex 36.061 83.3321 49
      vertex 33.4257 84.4237 49
    endloop
  endfacet
  facet normal -0.382683 -0.92388 0
    outer loop
      vertex 33.4257 84.4237 0
      vertex 36.061 83.3321 0
      vertex 33.4257 84.4237 49
    endloop
  endfacet
  facet normal -0.411514 -0.911403 0
    outer loop
      vertex 38.6608 82.1583 0
      vertex 38.6608 82.1583 49
      vertex 36.061 83.3321 49
    endloop
  endfacet
  facet normal -0.411514 -0.911403 0
    outer loop
      vertex 36.061 83.3321 0
      vertex 38.6608 82.1583 0
      vertex 36.061 83.3321 49
    endloop
  endfacet
  facet normal -0.439939 -0.898028 0
    outer loop
      vertex 41.2223 80.9034 0
      vertex 41.2223 80.9034 49
      vertex 38.6608 82.1583 49
    endloop
  endfacet
  facet normal -0.439939 -0.898028 0
    outer loop
      vertex 38.6608 82.1583 0
      vertex 41.2223 80.9034 0
      vertex 38.6608 82.1583 49
    endloop
  endfacet
  facet normal -0.467929 -0.883766 0
    outer loop
      vertex 43.7432 79.5686 0
      vertex 43.7432 79.5686 49
      vertex 41.2223 80.9034 49
    endloop
  endfacet
  facet normal -0.467929 -0.883766 0
    outer loop
      vertex 41.2223 80.9034 0
      vertex 43.7432 79.5686 0
      vertex 41.2223 80.9034 49
    endloop
  endfacet
  facet normal -0.495459 -0.868631 0
    outer loop
      vertex 46.221 78.1554 0
      vertex 46.221 78.1554 49
      vertex 43.7432 79.5686 49
    endloop
  endfacet
  facet normal -0.495459 -0.868631 0
    outer loop
      vertex 43.7432 79.5686 0
      vertex 46.221 78.1554 0
      vertex 43.7432 79.5686 49
    endloop
  endfacet
  facet normal -0.522499 -0.85264 0
    outer loop
      vertex 48.6531 76.665 0
      vertex 48.6531 76.665 49
      vertex 46.221 78.1554 49
    endloop
  endfacet
  facet normal -0.522499 -0.85264 0
    outer loop
      vertex 46.221 78.1554 0
      vertex 48.6531 76.665 0
      vertex 46.221 78.1554 49
    endloop
  endfacet
  facet normal -0.549023 -0.835807 0
    outer loop
      vertex 51.0372 75.0989 0
      vertex 51.0372 75.0989 49
      vertex 48.6531 76.665 49
    endloop
  endfacet
  facet normal -0.549023 -0.835807 0
    outer loop
      vertex 48.6531 76.665 0
      vertex 51.0372 75.0989 0
      vertex 48.6531 76.665 49
    endloop
  endfacet
  facet normal -0.575005 -0.81815 0
    outer loop
      vertex 53.3709 73.4587 0
      vertex 53.3709 73.4587 49
      vertex 51.0372 75.0989 49
    endloop
  endfacet
  facet normal -0.575005 -0.81815 0
    outer loop
      vertex 51.0372 75.0989 0
      vertex 53.3709 73.4587 0
      vertex 51.0372 75.0989 49
    endloop
  endfacet
  facet normal -0.60042 -0.799685 0
    outer loop
      vertex 55.652 71.7461 0
      vertex 55.652 71.7461 49
      vertex 53.3709 73.4587 49
    endloop
  endfacet
  facet normal -0.60042 -0.799685 0
    outer loop
      vertex 53.3709 73.4587 0
      vertex 55.652 71.7461 0
      vertex 53.3709 73.4587 49
    endloop
  endfacet
  facet normal -0.625243 -0.78043 0
    outer loop
      vertex 57.8781 69.9626 0
      vertex 57.8781 69.9626 49
      vertex 55.652 71.7461 49
    endloop
  endfacet
  facet normal -0.625243 -0.78043 0
    outer loop
      vertex 55.652 71.7461 0
      vertex 57.8781 69.9626 0
      vertex 55.652 71.7461 49
    endloop
  endfacet
  facet normal -0.649448 -0.760406 0
    outer loop
      vertex 60.0471 68.1101 0
      vertex 60.0471 68.1101 49
      vertex 57.8781 69.9626 49
    endloop
  endfacet
  facet normal -0.649448 -0.760406 0
    outer loop
      vertex 57.8781 69.9626 0
      vertex 60.0471 68.1101 0
      vertex 57.8781 69.9626 49
    endloop
  endfacet
  facet normal -0.673013 -0.739631 0
    outer loop
      vertex 62.1569 66.1904 0
      vertex 62.1569 66.1904 49
      vertex 60.0471 68.1101 49
    endloop
  endfacet
  facet normal -0.673013 -0.739631 0
    outer loop
      vertex 60.0471 68.1101 0
      vertex 62.1569 66.1904 0
      vertex 60.0471 68.1101 49
    endloop
  endfacet
  facet normal -0.695913 -0.718126 0
    outer loop
      vertex 64.2053 64.2053 0
      vertex 64.2053 64.2053 49
      vertex 62.1569 66.1904 49
    endloop
  endfacet
  facet normal -0.695913 -0.718126 0
    outer loop
      vertex 62.1569 66.1904 0
      vertex 64.2053 64.2053 0
      vertex 62.1569 66.1904 49
    endloop
  endfacet
  facet normal -0.718126 -0.695913 0
    outer loop
      vertex 66.1904 62.1569 49
      vertex 64.2053 64.2053 49
      vertex 66.1904 62.1569 0
    endloop
  endfacet
  facet normal -0.718126 -0.695913 0
    outer loop
      vertex 66.1904 62.1569 0
      vertex 64.2053 64.2053 49
      vertex 64.2053 64.2053 0
    endloop
  endfacet
  facet normal -0.739631 -0.673013 0
    outer loop
      vertex 68.1101 60.0471 49
      vertex 66.1904 62.1569 49
      vertex 68.1101 60.0471 0
    endloop
  endfacet
  facet normal -0.739631 -0.673013 0
    outer loop
      vertex 68.1101 60.0471 0
      vertex 66.1904 62.1569 49
      vertex 66.1904 62.1569 0
    endloop
  endfacet
  facet normal -0.760406 -0.649448 0
    outer loop
      vertex 69.9626 57.8781 49
      vertex 68.1101 60.0471 49
      vertex 69.9626 57.8781 0
    endloop
  endfacet
  facet normal -0.760406 -0.649448 0
    outer loop
      vertex 69.9626 57.8781 0
      vertex 68.1101 60.0471 49
      vertex 68.1101 60.0471 0
    endloop
  endfacet
  facet normal -0.78043 -0.625243 0
    outer loop
      vertex 71.7461 55.652 49
      vertex 69.9626 57.8781 49
      vertex 71.7461 55.652 0
    endloop
  endfacet
  facet normal -0.78043 -0.625243 0
    outer loop
      vertex 71.7461 55.652 0
      vertex 69.9626 57.8781 49
      vertex 69.9626 57.8781 0
    endloop
  endfacet
  facet normal -0.799685 -0.60042 0
    outer loop
      vertex 73.4587 53.3709 49
      vertex 71.7461 55.652 49
      vertex 73.4587 53.3709 0
    endloop
  endfacet
  facet normal -0.799685 -0.60042 0
    outer loop
      vertex 73.4587 53.3709 0
      vertex 71.7461 55.652 49
      vertex 71.7461 55.652 0
    endloop
  endfacet
  facet normal -0.81815 -0.575005 0
    outer loop
      vertex 75.0989 51.0372 49
      vertex 73.4587 53.3709 49
      vertex 75.0989 51.0372 0
    endloop
  endfacet
  facet normal -0.81815 -0.575005 0
    outer loop
      vertex 75.0989 51.0372 0
      vertex 73.4587 53.3709 49
      vertex 73.4587 53.3709 0
    endloop
  endfacet
  facet normal -0.835807 -0.549023 0
    outer loop
      vertex 76.665 48.6531 49
      vertex 75.0989 51.0372 49
      vertex 76.665 48.6531 0
    endloop
  endfacet
  facet normal -0.835807 -0.549023 0
    outer loop
      vertex 76.665 48.6531 0
      vertex 75.0989 51.0372 49
      vertex 75.0989 51.0372 0
    endloop
  endfacet
  facet normal -0.85264 -0.522499 0
    outer loop
      vertex 78.1554 46.221 49
      vertex 76.665 48.6531 49
      vertex 78.1554 46.221 0
    endloop
  endfacet
  facet normal -0.85264 -0.522499 0
    outer loop
      vertex 78.1554 46.221 0
      vertex 76.665 48.6531 49
      vertex 76.665 48.6531 0
    endloop
  endfacet
  facet normal -0.868631 -0.495459 0
    outer loop
      vertex 79.5686 43.7432 49
      vertex 78.1554 46.221 49
      vertex 79.5686 43.7432 0
    endloop
  endfacet
  facet normal -0.868631 -0.495459 0
    outer loop
      vertex 79.5686 43.7432 0
      vertex 78.1554 46.221 49
      vertex 78.1554 46.221 0
    endloop
  endfacet
  facet normal -0.883766 -0.467929 0
    outer loop
      vertex 80.9034 41.2223 49
      vertex 79.5686 43.7432 49
      vertex 80.9034 41.2223 0
    endloop
  endfacet
  facet normal -0.883766 -0.467929 0
    outer loop
      vertex 80.9034 41.2223 0
      vertex 79.5686 43.7432 49
      vertex 79.5686 43.7432 0
    endloop
  endfacet
  facet normal -0.898028 -0.439939 0
    outer loop
      vertex 82.1583 38.6608 49
      vertex 80.9034 41.2223 49
      vertex 82.1583 38.6608 0
    endloop
  endfacet
  facet normal -0.898028 -0.439939 0
    outer loop
      vertex 82.1583 38.6608 0
      vertex 80.9034 41.2223 49
      vertex 80.9034 41.2223 0
    endloop
  endfacet
  facet normal -0.911403 -0.411514 0
    outer loop
      vertex 83.3321 36.061 49
      vertex 82.1583 38.6608 49
      vertex 83.3321 36.061 0
    endloop
  endfacet
  facet normal -0.911403 -0.411514 0
    outer loop
      vertex 83.3321 36.061 0
      vertex 82.1583 38.6608 49
      vertex 82.1583 38.6608 0
    endloop
  endfacet
  facet normal -0.92388 -0.382683 0
    outer loop
      vertex 84.4237 33.4257 49
      vertex 83.3321 36.061 49
      vertex 84.4237 33.4257 0
    endloop
  endfacet
  facet normal -0.92388 -0.382683 0
    outer loop
      vertex 84.4237 33.4257 0
      vertex 83.3321 36.061 49
      vertex 83.3321 36.061 0
    endloop
  endfacet
  facet normal -0.935444 -0.353475 0
    outer loop
      vertex 85.432 30.7574 49
      vertex 84.4237 33.4257 49
      vertex 85.432 30.7574 0
    endloop
  endfacet
  facet normal -0.935444 -0.353475 0
    outer loop
      vertex 85.432 30.7574 0
      vertex 84.4237 33.4257 49
      vertex 84.4237 33.4257 0
    endloop
  endfacet
  facet normal -0.946085 -0.323917 0
    outer loop
      vertex 86.3559 28.0587 49
      vertex 85.432 30.7574 49
      vertex 86.3559 28.0587 0
    endloop
  endfacet
  facet normal -0.946085 -0.323917 0
    outer loop
      vertex 86.3559 28.0587 0
      vertex 85.432 30.7574 49
      vertex 85.432 30.7574 0
    endloop
  endfacet
  facet normal -0.955793 -0.29404 0
    outer loop
      vertex 87.1947 25.3324 49
      vertex 86.3559 28.0587 49
      vertex 87.1947 25.3324 0
    endloop
  endfacet
  facet normal -0.955793 -0.29404 0
    outer loop
      vertex 87.1947 25.3324 0
      vertex 86.3559 28.0587 49
      vertex 86.3559 28.0587 0
    endloop
  endfacet
  facet normal -0.964557 -0.263873 0
    outer loop
      vertex 87.9474 22.581 49
      vertex 87.1947 25.3324 49
      vertex 87.9474 22.581 0
    endloop
  endfacet
  facet normal -0.964557 -0.263873 0
    outer loop
      vertex 87.9474 22.581 0
      vertex 87.1947 25.3324 49
      vertex 87.1947 25.3324 0
    endloop
  endfacet
  facet normal -0.97237 -0.233445 0
    outer loop
      vertex 88.6132 19.8074 49
      vertex 87.9474 22.581 49
      vertex 88.6132 19.8074 0
    endloop
  endfacet
  facet normal -0.97237 -0.233445 0
    outer loop
      vertex 88.6132 19.8074 0
      vertex 87.9474 22.581 49
      vertex 87.9474 22.581 0
    endloop
  endfacet
  facet normal -0.979223 -0.202787 0
    outer loop
      vertex 89.1917 17.0142 49
      vertex 88.6132 19.8074 49
      vertex 89.1917 17.0142 0
    endloop
  endfacet
  facet normal -0.979223 -0.202787 0
    outer loop
      vertex 89.1917 17.0142 0
      vertex 88.6132 19.8074 49
      vertex 88.6132 19.8074 0
    endloop
  endfacet
  facet normal -0.985109 -0.171929 0
    outer loop
      vertex 89.6821 14.2042 49
      vertex 89.1917 17.0142 49
      vertex 89.6821 14.2042 0
    endloop
  endfacet
  facet normal -0.985109 -0.171929 0
    outer loop
      vertex 89.6821 14.2042 0
      vertex 89.1917 17.0142 49
      vertex 89.1917 17.0142 0
    endloop
  endfacet
  facet normal -0.990024 -0.140901 0
    outer loop
      vertex 90.084 11.3803 49
      vertex 89.6821 14.2042 49
      vertex 90.084 11.3803 0
    endloop
  endfacet
  facet normal -0.990024 -0.140901 0
    outer loop
      vertex 90.084 11.3803 0
      vertex 89.6821 14.2042 49
      vertex 89.6821 14.2042 0
    endloop
  endfacet
  facet normal -0.993961 -0.109734 0
    outer loop
      vertex 90.397 8.54504 49
      vertex 90.084 11.3803 49
      vertex 90.397 8.54504 0
    endloop
  endfacet
  facet normal -0.993961 -0.109734 0
    outer loop
      vertex 90.397 8.54504 0
      vertex 90.084 11.3803 49
      vertex 90.084 11.3803 0
    endloop
  endfacet
  facet normal -0.996917 -0.0784592 0
    outer loop
      vertex 90.6208 5.70138 49
      vertex 90.397 8.54504 49
      vertex 90.6208 5.70138 0
    endloop
  endfacet
  facet normal -0.996917 -0.0784592 0
    outer loop
      vertex 90.6208 5.70138 0
      vertex 90.397 8.54504 49
      vertex 90.397 8.54504 0
    endloop
  endfacet
  facet normal -0.99889 -0.0471065 0
    outer loop
      vertex 90.7552 2.8521 49
      vertex 90.6208 5.70138 49
      vertex 90.7552 2.8521 0
    endloop
  endfacet
  facet normal -0.99889 -0.0471065 0
    outer loop
      vertex 90.7552 2.8521 0
      vertex 90.6208 5.70138 49
      vertex 90.6208 5.70138 0
    endloop
  endfacet
  facet normal -0.999877 -0.0157072 0
    outer loop
      vertex 90.8 0 49
      vertex 90.7552 2.8521 49
      vertex 90.8 0 0
    endloop
  endfacet
  facet normal -0.999877 -0.0157072 0
    outer loop
      vertex 90.8 0 0
      vertex 90.7552 2.8521 49
      vertex 90.7552 2.8521 0
    endloop
  endfacet
  facet normal 0 -1 0
    outer loop
      vertex 100 0 0
      vertex 100 0 49
      vertex 90.8 0 49
    endloop
  endfacet
  facet normal 0 -1 0
    outer loop
      vertex 90.8 0 0
      vertex 100 0 0
      vertex 90.8 0 49
    endloop
  endfacet
  facet normal 0.999877 0.0157073 0
    outer loop
      vertex 100 0 0
      vertex 99.9507 3.14108 0
      vertex 99.9507 3.14108 49
    endloop
  endfacet
  facet normal 0.999877 0.0157073 0
    outer loop
      vertex 100 0 49
      vertex 100 0 0
      vertex 99.9507 3.14108 49
    endloop
  endfacet
  facet normal 0.99889 0.0471064 0
    outer loop
      vertex 99.9507 3.14108 0
      vertex 99.8027 6.27905 0
      vertex 99.8027 6.27905 49
    endloop
  endfacet
  facet normal 0.99889 0.0471064 0
    outer loop
      vertex 99.9507 3.14108 49
      vertex 99.9507 3.14108 0
      vertex 99.8027 6.27905 49
    endloop
  endfacet
  facet normal 0.996917 0.0784593 0
    outer loop
      vertex 99.8027 6.27905 0
      vertex 99.5562 9.41083 0
      vertex 99.5562 9.41083 49
    endloop
  endfacet
  facet normal 0.996917 0.0784593 0
    outer loop
      vertex 99.8027 6.27905 49
      vertex 99.8027 6.27905 0
      vertex 99.5562 9.41083 49
    endloop
  endfacet
  facet normal 0.993961 0.109734 0
    outer loop
      vertex 99.5562 9.41083 0
      vertex 99.2115 12.5333 0
      vertex 99.2115 12.5333 49
    endloop
  endfacet
  facet normal 0.993961 0.109734 0
    outer loop
      vertex 99.5562 9.41083 49
      vertex 99.5562 9.41083 0
      vertex 99.2115 12.5333 49
    endloop
  endfacet
  facet normal 0.990024 0.140901 0
    outer loop
      vertex 99.2115 12.5333 0
      vertex 98.7688 15.6434 0
      vertex 98.7688 15.6434 49
    endloop
  endfacet
  facet normal 0.990024 0.140901 0
    outer loop
      vertex 99.2115 12.5333 49
      vertex 99.2115 12.5333 0
      vertex 98.7688 15.6434 49
    endloop
  endfacet
  facet normal 0.985109 0.171929 0
    outer loop
      vertex 98.7688 15.6434 0
      vertex 98.2287 18.7381 0
      vertex 98.2287 18.7381 49
    endloop
  endfacet
  facet normal 0.985109 0.171929 0
    outer loop
      vertex 98.7688 15.6434 49
      vertex 98.7688 15.6434 0
      vertex 98.2287 18.7381 49
    endloop
  endfacet
  facet normal 0.979223 0.202787 0
    outer loop
      vertex 98.2287 18.7381 0
      vertex 97.5917 21.8143 0
      vertex 97.5917 21.8143 49
    endloop
  endfacet
  facet normal 0.979223 0.202787 0
    outer loop
      vertex 98.2287 18.7381 49
      vertex 98.2287 18.7381 0
      vertex 97.5917 21.8143 49
    endloop
  endfacet
  facet normal 0.97237 0.233445 0
    outer loop
      vertex 97.5917 21.8143 0
      vertex 96.8583 24.869 0
      vertex 96.8583 24.869 49
    endloop
  endfacet
  facet normal 0.97237 0.233445 0
    outer loop
      vertex 97.5917 21.8143 49
      vertex 97.5917 21.8143 0
      vertex 96.8583 24.869 49
    endloop
  endfacet
  facet normal 0.964557 0.263873 0
    outer loop
      vertex 96.8583 24.869 0
      vertex 96.0294 27.8991 0
      vertex 96.0294 27.8991 49
    endloop
  endfacet
  facet normal 0.964557 0.263873 0
    outer loop
      vertex 96.8583 24.869 49
      vertex 96.8583 24.869 0
      vertex 96.0294 27.8991 49
    endloop
  endfacet
  facet normal 0.955793 0.29404 0
    outer loop
      vertex 96.0294 27.8991 0
      vertex 95.1057 30.9017 0
      vertex 95.1057 30.9017 49
    endloop
  endfacet
  facet normal 0.955793 0.29404 0
    outer loop
      vertex 96.0294 27.8991 49
      vertex 96.0294 27.8991 0
      vertex 95.1057 30.9017 49
    endloop
  endfacet
  facet normal 0.946085 0.323917 0
    outer loop
      vertex 95.1057 30.9017 0
      vertex 94.0881 33.8738 0
      vertex 94.0881 33.8738 49
    endloop
  endfacet
  facet normal 0.946085 0.323917 0
    outer loop
      vertex 95.1057 30.9017 49
      vertex 95.1057 30.9017 0
      vertex 94.0881 33.8738 49
    endloop
  endfacet
  facet normal 0.935444 0.353475 0
    outer loop
      vertex 94.0881 33.8738 0
      vertex 92.9776 36.8125 0
      vertex 92.9776 36.8125 49
    endloop
  endfacet
  facet normal 0.935444 0.353475 0
    outer loop
      vertex 94.0881 33.8738 49
      vertex 94.0881 33.8738 0
      vertex 92.9776 36.8125 49
    endloop
  endfacet
  facet normal 0.92388 0.382683 0
    outer loop
      vertex 92.9776 36.8125 0
      vertex 91.7755 39.7148 0
      vertex 91.7755 39.7148 49
    endloop
  endfacet
  facet normal 0.92388 0.382683 0
    outer loop
      vertex 92.9776 36.8125 49
      vertex 92.9776 36.8125 0
      vertex 91.7755 39.7148 49
    endloop
  endfacet
  facet normal 0.911403 0.411515 0
    outer loop
      vertex 91.7755 39.7148 0
      vertex 90.4827 42.5779 0
      vertex 90.4827 42.5779 49
    endloop
  endfacet
  facet normal 0.911403 0.411515 0
    outer loop
      vertex 91.7755 39.7148 49
      vertex 91.7755 39.7148 0
      vertex 90.4827 42.5779 49
    endloop
  endfacet
  facet normal 0.898028 0.439939 0
    outer loop
      vertex 90.4827 42.5779 0
      vertex 89.1007 45.399 0
      vertex 89.1007 45.399 49
    endloop
  endfacet
  facet normal 0.898028 0.439939 0
    outer loop
      vertex 90.4827 42.5779 49
      vertex 90.4827 42.5779 0
      vertex 89.1007 45.399 49
    endloop
  endfacet
  facet normal 0.883766 0.46793 0
    outer loop
      vertex 89.1007 45.399 0
      vertex 87.6307 48.1754 0
      vertex 87.6307 48.1754 49
    endloop
  endfacet
  facet normal 0.883766 0.46793 0
    outer loop
      vertex 89.1007 45.399 49
      vertex 89.1007 45.399 0
      vertex 87.6307 48.1754 49
    endloop
  endfacet
  facet normal 0.868632 0.495458 0
    outer loop
      vertex 87.6307 48.1754 0
      vertex 86.0742 50.9041 0
      vertex 86.0742 50.9041 49
    endloop
  endfacet
  facet normal 0.868632 0.495458 0
    outer loop
      vertex 87.6307 48.1754 49
      vertex 87.6307 48.1754 0
      vertex 86.0742 50.9041 49
    endloop
  endfacet
  facet normal 0.85264 0.522499 0
    outer loop
      vertex 86.0742 50.9041 0
      vertex 84.4328 53.5827 0
      vertex 84.4328 53.5827 49
    endloop
  endfacet
  facet normal 0.85264 0.522499 0
    outer loop
      vertex 86.0742 50.9041 49
      vertex 86.0742 50.9041 0
      vertex 84.4328 53.5827 49
    endloop
  endfacet
  facet normal 0.835807 0.549023 0
    outer loop
      vertex 84.4328 53.5827 0
      vertex 82.7081 56.2083 0
      vertex 82.7081 56.2083 49
    endloop
  endfacet
  facet normal 0.835807 0.549023 0
    outer loop
      vertex 84.4328 53.5827 49
      vertex 84.4328 53.5827 0
      vertex 82.7081 56.2083 49
    endloop
  endfacet
  facet normal 0.81815 0.575005 0
    outer loop
      vertex 82.7081 56.2083 0
      vertex 80.9017 58.7785 0
      vertex 80.9017 58.7785 49
    endloop
  endfacet
  facet normal 0.81815 0.575005 0
    outer loop
      vertex 82.7081 56.2083 49
      vertex 82.7081 56.2083 0
      vertex 80.9017 58.7785 49
    endloop
  endfacet
  facet normal 0.799685 0.60042 0
    outer loop
      vertex 80.9017 58.7785 0
      vertex 79.0155 61.2907 0
      vertex 79.0155 61.2907 49
    endloop
  endfacet
  facet normal 0.799685 0.60042 0
    outer loop
      vertex 80.9017 58.7785 49
      vertex 80.9017 58.7785 0
      vertex 79.0155 61.2907 49
    endloop
  endfacet
  facet normal 0.78043 0.625243 0
    outer loop
      vertex 79.0155 61.2907 0
      vertex 77.0513 63.7424 0
      vertex 77.0513 63.7424 49
    endloop
  endfacet
  facet normal 0.78043 0.625243 0
    outer loop
      vertex 79.0155 61.2907 49
      vertex 79.0155 61.2907 0
      vertex 77.0513 63.7424 49
    endloop
  endfacet
  facet normal 0.760406 0.649448 0
    outer loop
      vertex 77.0513 63.7424 0
      vertex 75.0111 66.1312 0
      vertex 75.0111 66.1312 49
    endloop
  endfacet
  facet normal 0.760406 0.649448 0
    outer loop
      vertex 77.0513 63.7424 49
      vertex 77.0513 63.7424 0
      vertex 75.0111 66.1312 49
    endloop
  endfacet
  facet normal 0.739631 0.673012 0
    outer loop
      vertex 75.0111 66.1312 0
      vertex 72.8969 68.4547 0
      vertex 72.8969 68.4547 49
    endloop
  endfacet
  facet normal 0.739631 0.673012 0
    outer loop
      vertex 75.0111 66.1312 49
      vertex 75.0111 66.1312 0
      vertex 72.8969 68.4547 49
    endloop
  endfacet
  facet normal 0.718126 0.695913 0
    outer loop
      vertex 72.8969 68.4547 0
      vertex 70.7107 70.7107 0
      vertex 70.7107 70.7107 49
    endloop
  endfacet
  facet normal 0.718126 0.695913 0
    outer loop
      vertex 72.8969 68.4547 49
      vertex 72.8969 68.4547 0
      vertex 70.7107 70.7107 49
    endloop
  endfacet
  facet normal 0.695913 0.718126 0
    outer loop
      vertex 68.4547 72.8969 0
      vertex 68.4547 72.8969 49
      vertex 70.7107 70.7107 0
    endloop
  endfacet
  facet normal 0.695913 0.718126 0
    outer loop
      vertex 70.7107 70.7107 0
      vertex 68.4547 72.8969 49
      vertex 70.7107 70.7107 49
    endloop
  endfacet
  facet normal 0.673012 0.739631 0
    outer loop
      vertex 66.1312 75.0111 0
      vertex 66.1312 75.0111 49
      vertex 68.4547 72.8969 0
    endloop
  endfacet
  facet normal 0.673012 0.739631 0
    outer loop
      vertex 68.4547 72.8969 0
      vertex 66.1312 75.0111 49
      vertex 68.4547 72.8969 49
    endloop
  endfacet
  facet normal 0.649448 0.760406 0
    outer loop
      vertex 63.7424 77.0513 0
      vertex 63.7424 77.0513 49
      vertex 66.1312 75.0111 0
    endloop
  endfacet
  facet normal 0.649448 0.760406 0
    outer loop
      vertex 66.1312 75.0111 0
      vertex 63.7424 77.0513 49
      vertex 66.1312 75.0111 49
    endloop
  endfacet
  facet normal 0.625243 0.78043 0
    outer loop
      vertex 61.2907 79.0155 0
      vertex 61.2907 79.0155 49
      vertex 63.7424 77.0513 0
    endloop
  endfacet
  facet normal 0.625243 0.78043 0
    outer loop
      vertex 63.7424 77.0513 0
      vertex 61.2907 79.0155 49
      vertex 63.7424 77.0513 49
    endloop
  endfacet
  facet normal 0.60042 0.799685 0
    outer loop
      vertex 58.7785 80.9017 0
      vertex 58.7785 80.9017 49
      vertex 61.2907 79.0155 0
    endloop
  endfacet
  facet normal 0.60042 0.799685 0
    outer loop
      vertex 61.2907 79.0155 0
      vertex 58.7785 80.9017 49
      vertex 61.2907 79.0155 49
    endloop
  endfacet
  facet normal 0.575005 0.81815 0
    outer loop
      vertex 56.2083 82.7081 0
      vertex 56.2083 82.7081 49
      vertex 58.7785 80.9017 0
    endloop
  endfacet
  facet normal 0.575005 0.81815 0
    outer loop
      vertex 58.7785 80.9017 0
      vertex 56.2083 82.7081 49
      vertex 58.7785 80.9017 49
    endloop
  endfacet
  facet normal 0.549023 0.835807 0
    outer loop
      vertex 53.5827 84.4328 0
      vertex 53.5827 84.4328 49
      vertex 56.2083 82.7081 0
    endloop
  endfacet
  facet normal 0.549023 0.835807 0
    outer loop
      vertex 56.2083 82.7081 0
      vertex 53.5827 84.4328 49
      vertex 56.2083 82.7081 49
    endloop
  endfacet
  facet normal 0.522499 0.85264 0
    outer loop
      vertex 50.9041 86.0742 0
      vertex 50.9041 86.0742 49
      vertex 53.5827 84.4328 0
    endloop
  endfacet
  facet normal 0.522499 0.85264 0
    outer loop
      vertex 53.5827 84.4328 0
      vertex 50.9041 86.0742 49
      vertex 53.5827 84.4328 49
    endloop
  endfacet
  facet normal 0.495458 0.868632 0
    outer loop
      vertex 48.1754 87.6307 0
      vertex 48.1754 87.6307 49
      vertex 50.9041 86.0742 0
    endloop
  endfacet
  facet normal 0.495458 0.868632 0
    outer loop
      vertex 50.9041 86.0742 0
      vertex 48.1754 87.6307 49
      vertex 50.9041 86.0742 49
    endloop
  endfacet
  facet normal 0.46793 0.883766 0
    outer loop
      vertex 45.399 89.1007 0
      vertex 45.399 89.1007 49
      vertex 48.1754 87.6307 0
    endloop
  endfacet
  facet normal 0.46793 0.883766 0
    outer loop
      vertex 48.1754 87.6307 0
      vertex 45.399 89.1007 49
      vertex 48.1754 87.6307 49
    endloop
  endfacet
  facet normal 0.439939 0.898028 0
    outer loop
      vertex 42.5779 90.4827 0
      vertex 42.5779 90.4827 49
      vertex 45.399 89.1007 0
    endloop
  endfacet
  facet normal 0.439939 0.898028 0
    outer loop
      vertex 45.399 89.1007 0
      vertex 42.5779 90.4827 49
      vertex 45.399 89.1007 49
    endloop
  endfacet
  facet normal 0.411515 0.911403 0
    outer loop
      vertex 39.7148 91.7755 0
      vertex 39.7148 91.7755 49
      vertex 42.5779 90.4827 0
    endloop
  endfacet
  facet normal 0.411515 0.911403 0
    outer loop
      vertex 42.5779 90.4827 0
      vertex 39.7148 91.7755 49
      vertex 42.5779 90.4827 49
    endloop
  endfacet
  facet normal 0.382683 0.92388 0
    outer loop
      vertex 36.8125 92.9776 0
      vertex 36.8125 92.9776 49
      vertex 39.7148 91.7755 0
    endloop
  endfacet
  facet normal 0.382683 0.92388 0
    outer loop
      vertex 39.7148 91.7755 0
      vertex 36.8125 92.9776 49
      vertex 39.7148 91.7755 49
    endloop
  endfacet
  facet normal 0.353475 0.935444 0
    outer loop
      vertex 33.8738 94.0881 0
      vertex 33.8738 94.0881 49
      vertex 36.8125 92.9776 0
    endloop
  endfacet
  facet normal 0.353475 0.935444 0
    outer loop
      vertex 36.8125 92.9776 0
      vertex 33.8738 94.0881 49
      vertex 36.8125 92.9776 49
    endloop
  endfacet
  facet normal 0.323917 0.946085 0
    outer loop
      vertex 30.9017 95.1057 0
      vertex 30.9017 95.1057 49
      vertex 33.8738 94.0881 0
    endloop
  endfacet
  facet normal 0.323917 0.946085 0
    outer loop
      vertex 33.8738 94.0881 0
      vertex 30.9017 95.1057 49
      vertex 33.8738 94.0881 49
    endloop
  endfacet
  facet normal 0.29404 0.955793 0
    outer loop
      vertex 27.8991 96.0294 0
      vertex 27.8991 96.0294 49
      vertex 30.9017 95.1057 0
    endloop
  endfacet
  facet normal 0.29404 0.955793 0
    outer loop
      vertex 30.9017 95.1057 0
      vertex 27.8991 96.0294 49
      vertex 30.9017 95.1057 49
    endloop
  endfacet
  facet normal 0.263873 0.964557 0
    outer loop
      vertex 24.869 96.8583 0
      vertex 24.869 96.8583 49
      vertex 27.8991 96.0294 0
    endloop
  endfacet
  facet normal 0.263873 0.964557 0
    outer loop
      vertex 27.8991 96.0294 0
      vertex 24.869 96.8583 49
      vertex 27.8991 96.0294 49
    endloop
  endfacet
  facet normal 0.233445 0.97237 0
    outer loop
      vertex 21.8143 97.5917 0
      vertex 21.8143 97.5917 49
      vertex 24.869 96.8583 0
    endloop
  endfacet
  facet normal 0.233445 0.97237 0
    outer loop
      vertex 24.869 96.8583 0
      vertex 21.8143 97.5917 49
      vertex 24.869 96.8583 49
    endloop
  endfacet
  facet normal 0.202787 0.979223 0
    outer loop
      vertex 18.7381 98.2287 0
      vertex 18.7381 98.2287 49
      vertex 21.8143 97.5917 0
    endloop
  endfacet
  facet normal 0.202787 0.979223 0
    outer loop
      vertex 21.8143 97.5917 0
      vertex 18.7381 98.2287 49
      vertex 21.8143 97.5917 49
    endloop
  endfacet
  facet normal 0.171929 0.985109 0
    outer loop
      vertex 15.6434 98.7688 0
      vertex 15.6434 98.7688 49
      vertex 18.7381 98.2287 0
    endloop
  endfacet
  facet normal 0.171929 0.985109 0
    outer loop
      vertex 18.7381 98.2287 0
      vertex 15.6434 98.7688 49
      vertex 18.7381 98.2287 49
    endloop
  endfacet
  facet normal 0.140901 0.990024 0
    outer loop
      vertex 12.5333 99.2115 0
      vertex 12.5333 99.2115 49
      vertex 15.6434 98.7688 0
    endloop
  endfacet
  facet normal 0.140901 0.990024 0
    outer loop
      vertex 15.6434 98.7688 0
      vertex 12.5333 99.2115 49
      vertex 15.6434 98.7688 49
    endloop
  endfacet
  facet normal 0.109734 0.993961 0
    outer loop
      vertex 9.41083 99.5562 0
      vertex 9.41083 99.5562 49
      vertex 12.5333 99.2115 0
    endloop
  endfacet
  facet normal 0.109734 0.993961 0
    outer loop
      vertex 12.5333 99.2115 0
      vertex 9.41083 99.5562 49
      vertex 12.5333 99.2115 49
    endloop
  endfacet
  facet normal 0.0784593 0.996917 0
    outer loop
      vertex 6.27905 99.8027 0
      vertex 6.27905 99.8027 49
      vertex 9.41083 99.5562 0
    endloop
  endfacet
  facet normal 0.0784593 0.996917 0
    outer loop
      vertex 9.41083 99.5562 0
      vertex 6.27905 99.8027 49
      vertex 9.41083 99.5562 49
    endloop
  endfacet
  facet normal 0.0471064 0.99889 0
    outer loop
      vertex 3.14108 99.9507 0
      vertex 3.14108 99.9507 49
      vertex 6.27905 99.8027 0
    endloop
  endfacet
  facet normal 0.0471064 0.99889 0
    outer loop
      vertex 6.27905 99.8027 0
      vertex 3.14108 99.9507 49
      vertex 6.27905 99.8027 49
    endloop
  endfacet
endsolid OpenSCAD_Model
